<svg width="25" height="18" viewBox="0 0 25 18" fill="none" xmlns="http://www.w3.org/2000/svg">
<path fill-rule="evenodd" clip-rule="evenodd" d="M6.32184 1.18691C10.301 0.841016 14.3026 0.841016 18.2818 1.18691L20.1898 1.35371C21.0769 1.43094 21.9121 1.8045 22.561 2.41422C23.21 3.02394 23.6348 3.83433 23.767 4.71488C24.3401 8.52637 24.3401 12.4021 23.767 16.2136C23.7165 16.5472 23.6255 16.8669 23.4992 17.1664C23.4158 17.3647 23.158 17.3951 23.0114 17.2359L17.4251 11.0897C17.3015 10.9538 17.1412 10.8568 16.9635 10.8104C16.7858 10.7639 16.5985 10.7701 16.4243 10.8282L13.2261 11.8946L8.58747 6.67598C8.50166 6.57944 8.39703 6.50146 8.28 6.44682C8.16297 6.39219 8.036 6.36205 7.9069 6.35827C7.7778 6.35448 7.64928 6.37712 7.52925 6.4248C7.40922 6.47248 7.3002 6.5442 7.20888 6.63554L0.999569 12.8449C0.957386 12.8882 0.903468 12.9183 0.844425 12.9315C0.785383 12.9447 0.723782 12.9403 0.667174 12.919C0.610566 12.8976 0.561411 12.8603 0.525736 12.8114C0.490061 12.7626 0.469416 12.7044 0.466331 12.6439C0.31691 9.99484 0.440552 7.3374 0.835302 4.71361C0.967581 3.83307 1.39239 3.02268 2.04131 2.41296C2.69022 1.80324 3.52548 1.42968 4.41254 1.35245L6.32184 1.18691ZM14.8284 6.67345C14.8284 6.17076 15.0281 5.68866 15.3835 5.3332C15.739 4.97775 16.2211 4.77806 16.7238 4.77806C17.2265 4.77806 17.7086 4.97775 18.064 5.3332C18.4195 5.68866 18.6192 6.17076 18.6192 6.67345C18.6192 7.17614 18.4195 7.65824 18.064 8.0137C17.7086 8.36915 17.2265 8.56885 16.7238 8.56885C16.2211 8.56885 15.739 8.36915 15.3835 8.0137C15.0281 7.65824 14.8284 7.17614 14.8284 6.67345Z" fill="#C7C7C7"/>
</svg>
